Thx Hive

CM8 Doing It Right The First Time


Source: DVD-R

Encode:
DVD had good quality just interlaced a lot, removed that interlace and
cleaned it up, sharpness, brightness, rgb, denoise
got nice
enjoy

Video: 720x400 @bitrate 1800 2pass
Audio: English AC3 5.1 @384
Sample: Yes, included

 
http://www.imdb.com/title/tt1389127/


General
Complete name                  : Texas.Killing.Fields.2011.DVDRip.XVID.AC3.HQ.Hive-CM8.avi
Format                         : AVI
Format/Info                    : Audio Video Interleave
File size                      : 1.61 GiB
Duration                       : 1h 44mn
Overall bit rate               : 2 193 Kbps
Writing application            : Nandub v1.0rc2
Writing library                : Nandub build 1853/release

Video
ID                             : 0
Format                         : MPEG-4 Visual
Format profile                 : Advanced Simple@L5
Format settings, BVOP          : 2
Format settings, QPel          : Yes
Format settings, GMC           : No warppoints
Format settings, Matrix        : Default (H.263)
Muxing mode                    : Packed bitstream
Codec ID                       : XVID
Codec ID/Hint                  : XviD
Duration                       : 1h 44mn
Bit rate                       : 1 799 Kbps
Width                          : 720 pixels
Height                         : 400 pixels
Display aspect ratio           : 16:9
Frame rate                     : 23.976 fps
Color space                    : YUV
Chroma subsampling             : 4:2:0
Bit depth                      : 8 bits
Scan type                      : Progressive
Compression mode               : Lossy
Bits/(Pixel*Frame)             : 0.261
Stream size                    : 1.32 GiB (82%)
Writing library                : XviD 1.2.1 (UTC 2008-12-04)

Audio
ID                             : 1
Format                         : AC-3
Format/Info                    : Audio Coding 3
Mode extension                 : CM (complete main)
Codec ID                       : 2000
Duration                       : 1h 44mn
Bit rate mode                  : Constant
Bit rate                       : 384 Kbps
Channel(s)                     : 6 channels
Channel positions              : Front: L C R, Side: L R, LFE
Sampling rate                  : 48.0 KHz
Bit depth                      : 16 bits
Compression mode               : Lossy
Stream size                    : 288 MiB (18%)
Alignment                      : Split accross interleaves
Interleave, duration           : 42 ms (1.00 video frame)
Interleave, preload duration   : 500 ms


Plot:
In the Texas bayous, a local homicide detective teams up with a cop from
New York City to investigate a series of unsolved murders.


Cast:
Sam Worthington        ...    Det. Mike Souder
Jeffrey Dean Morgan    ...    Brian Heigh
Chloë Grace Moretz     ...    Little Anne Sliger
Jessica Chastain       ...    Det. Pam Stall
 
http://img341.imageshack.us/img341/7165/82036608.png 
http://img849.imageshack.us/img849/9588/65223822.png 
http://img809.imageshack.us/img809/7161/teteb.png 
http://img267.imageshack.us/img267/5/tetete.png